<svg width="161" height="33" viewBox="0 0 161 33" fill="none" xmlns="http://www.w3.org/2000/svg">
<path d="M12 11H6.5C3.46244 11 1 13.4624 1 16.5C1 19.5376 3.46244 22 6.5 22H12V27.5C12 30.5376 14.4624 33 17.5 33C20.5376 33 23 30.5376 23 27.5V22H17.5C14.4999 22 12.0609 19.598 12.0011 16.6122H12V11Z" fill="#0873BB"/>
<path d="M23 22L28.5 22C31.5376 22 34 19.5376 34 16.5C34 13.4624 31.5376 11 28.5 11L23 11L23 5.5C23 2.46243 20.5376 1.17692e-06 17.5 1.44248e-06C14.4624 1.70803e-06 12 2.46243 12 5.5L12 11L17.5 11C20.5001 11 22.9391 13.402 22.9989 16.3878L23 16.3878L23 22Z" fill="#0493B3"/>
<path fill-rule="evenodd" clip-rule="evenodd" d="M23 22H17.5C14.4999 22 12.0609 19.598 12.0011 16.6122H12V11H17.5C20.5001 11 22.9391 13.402 22.9989 16.3878H23L23 22Z" fill="#014181"/>
<path d="M48.504 26L42.264 8.12H45.816L50.712 22.928H50.016L54.912 8.12H58.464L52.248 26H48.504ZM60.1984 26V12.944H63.3424V26H60.1984ZM60.1984 11.48V8.12H63.3424V11.48H60.1984ZM72.1973 26.144C70.7253 26.144 69.5813 25.744 68.7653 24.944C67.9653 24.128 67.5653 22.984 67.5653 21.512V15.752H65.3093V12.944H65.5493C66.1893 12.944 66.6853 12.776 67.0373 12.44C67.3893 12.104 67.5653 11.616 67.5653 10.976V9.968H70.7093V12.944H73.7093V15.752H70.7093V21.344C70.7093 21.776 70.7813 22.144 70.9253 22.448C71.0853 22.752 71.3253 22.984 71.6453 23.144C71.9813 23.304 72.4053 23.384 72.9173 23.384C73.0293 23.384 73.1573 23.376 73.3013 23.36C73.4613 23.344 73.6133 23.328 73.7573 23.312V26C73.5333 26.032 73.2773 26.064 72.9893 26.096C72.7013 26.128 72.4373 26.144 72.1973 26.144ZM80.0724 26.288C79.1604 26.288 78.3684 26.136 77.6964 25.832C77.0244 25.528 76.5044 25.096 76.1364 24.536C75.7684 23.96 75.5844 23.296 75.5844 22.544C75.5844 21.824 75.7444 21.184 76.0644 20.624C76.3844 20.048 76.8804 19.568 77.5524 19.184C78.2244 18.8 79.0724 18.528 80.0964 18.368L84.3684 17.672V20.072L80.6964 20.696C80.0724 20.808 79.6084 21.008 79.3044 21.296C79.0004 21.584 78.8484 21.96 78.8484 22.424C78.8484 22.872 79.0164 23.232 79.3524 23.504C79.7044 23.76 80.1364 23.888 80.6484 23.888C81.3044 23.888 81.8804 23.752 82.3764 23.48C82.8884 23.192 83.2804 22.8 83.5524 22.304C83.8404 21.808 83.9844 21.264 83.9844 20.672V17.312C83.9844 16.752 83.7604 16.288 83.3124 15.92C82.8804 15.536 82.3044 15.344 81.5844 15.344C80.9124 15.344 80.3124 15.528 79.7844 15.896C79.2724 16.248 78.8964 16.72 78.6564 17.312L76.0884 16.064C76.3444 15.376 76.7444 14.784 77.2884 14.288C77.8484 13.776 78.5044 13.376 79.2564 13.088C80.0084 12.8 80.8244 12.656 81.7044 12.656C82.7764 12.656 83.7204 12.856 84.5364 13.256C85.3524 13.64 85.9844 14.184 86.4324 14.888C86.8964 15.576 87.1284 16.384 87.1284 17.312V26H84.1524V23.768L84.8244 23.72C84.4884 24.28 84.0884 24.752 83.6244 25.136C83.1604 25.504 82.6324 25.792 82.0404 26C81.4484 26.192 80.7924 26.288 80.0724 26.288ZM98.6983 26.288C97.4183 26.288 96.2343 26.056 95.1463 25.592C94.0743 25.128 93.1303 24.48 92.3143 23.648C91.5143 22.816 90.8903 21.84 90.4423 20.72C89.9943 19.6 89.7703 18.376 89.7703 17.048C89.7703 15.72 89.9863 14.496 90.4183 13.376C90.8663 12.24 91.4903 11.264 92.2903 10.448C93.1063 9.616 94.0583 8.976 95.1463 8.528C96.2343 8.064 97.4183 7.832 98.6983 7.832C99.9783 7.832 101.122 8.048 102.13 8.48C103.154 8.912 104.018 9.488 104.722 10.208C105.426 10.912 105.93 11.688 106.234 12.536L103.306 13.904C102.97 13.008 102.402 12.272 101.602 11.696C100.802 11.104 99.8343 10.808 98.6983 10.808C97.5783 10.808 96.5863 11.072 95.7223 11.6C94.8743 12.128 94.2103 12.856 93.7303 13.784C93.2663 14.712 93.0343 15.8 93.0343 17.048C93.0343 18.296 93.2663 19.392 93.7303 20.336C94.2103 21.264 94.8743 21.992 95.7223 22.52C96.5863 23.048 97.5783 23.312 98.6983 23.312C99.8343 23.312 100.802 23.024 101.602 22.448C102.402 21.856 102.97 21.112 103.306 20.216L106.234 21.584C105.93 22.432 105.426 23.216 104.722 23.936C104.018 24.64 103.154 25.208 102.13 25.64C101.122 26.072 99.9783 26.288 98.6983 26.288ZM113.276 26.288C112.268 26.288 111.388 26.064 110.636 25.616C109.9 25.168 109.332 24.544 108.932 23.744C108.548 22.944 108.356 22.008 108.356 20.936V12.944H111.5V20.672C111.5 21.216 111.604 21.696 111.812 22.112C112.036 22.512 112.348 22.832 112.748 23.072C113.164 23.296 113.628 23.408 114.14 23.408C114.652 23.408 115.108 23.296 115.508 23.072C115.908 22.832 116.22 22.504 116.444 22.088C116.668 21.672 116.78 21.176 116.78 20.6V12.944H119.924V26H116.948V23.432L117.212 23.888C116.908 24.688 116.404 25.288 115.7 25.688C115.012 26.088 114.204 26.288 113.276 26.288ZM122.847 26V12.944H125.799V15.848L125.559 15.416C125.863 14.44 126.335 13.76 126.975 13.376C127.631 12.992 128.415 12.8 129.327 12.8H130.095V15.584H128.967C128.071 15.584 127.351 15.864 126.807 16.424C126.263 16.968 125.991 17.736 125.991 18.728V26H122.847ZM138.015 26.288C136.671 26.288 135.495 25.984 134.487 25.376C133.479 24.768 132.695 23.944 132.135 22.904C131.575 21.864 131.295 20.712 131.295 19.448C131.295 18.136 131.575 16.976 132.135 15.968C132.711 14.944 133.487 14.136 134.463 13.544C135.455 12.952 136.559 12.656 137.775 12.656C138.799 12.656 139.695 12.824 140.463 13.16C141.247 13.496 141.911 13.96 142.455 14.552C142.999 15.144 143.415 15.824 143.703 16.592C143.991 17.344 144.135 18.16 144.135 19.04C144.135 19.264 144.119 19.496 144.087 19.736C144.071 19.976 144.031 20.184 143.967 20.36H133.887V17.96H142.191L140.703 19.088C140.847 18.352 140.807 17.696 140.583 17.12C140.375 16.544 140.023 16.088 139.527 15.752C139.047 15.416 138.463 15.248 137.775 15.248C137.119 15.248 136.535 15.416 136.023 15.752C135.511 16.072 135.119 16.552 134.847 17.192C134.591 17.816 134.495 18.576 134.559 19.472C134.495 20.272 134.599 20.984 134.871 21.608C135.159 22.216 135.575 22.688 136.119 23.024C136.679 23.36 137.319 23.528 138.039 23.528C138.759 23.528 139.367 23.376 139.863 23.072C140.375 22.768 140.775 22.36 141.063 21.848L143.607 23.096C143.351 23.72 142.951 24.272 142.407 24.752C141.863 25.232 141.215 25.608 140.463 25.88C139.727 26.152 138.911 26.288 138.015 26.288Z" fill="#0493B3"/>
</svg>
