<svg width="33" height="33" viewBox="0 0 33 33" fill="none" xmlns="http://www.w3.org/2000/svg">
<path d="M11 11H5.5C2.46244 11 0 13.4624 0 16.5C0 19.5376 2.46244 22 5.5 22H11V27.5C11 30.5376 13.4624 33 16.5 33C19.5376 33 22 30.5376 22 27.5V22H16.5C13.4999 22 11.0609 19.598 11.0011 16.6122H11V11Z" fill="#0873BB"/>
<path d="M22 22L27.5 22C30.5376 22 33 19.5376 33 16.5C33 13.4624 30.5376 11 27.5 11L22 11L22 5.5C22 2.46243 19.5376 1.17692e-06 16.5 1.44248e-06C13.4624 1.70803e-06 11 2.46243 11 5.5L11 11L16.5 11C19.5001 11 21.9391 13.402 21.9989 16.3878L22 16.3878L22 22Z" fill="#0493B3"/>
<path fill-rule="evenodd" clip-rule="evenodd" d="M22 22H16.5C13.4999 22 11.0609 19.598 11.0011 16.6122H11V11H16.5C19.5001 11 21.9391 13.402 21.9989 16.3878H22L22 22Z" fill="#014181"/>
</svg>
